<?xml version="1.0" encoding="UTF-8" standalone="no"?>
<!DOCTYPE svg PUBLIC "-//W3C//DTD SVG 20010904//EN"
              "http://www.w3.org/TR/2001/REC-SVG-20010904/DTD/svg10.dtd">

<svg xmlns="http://www.w3.org/2000/svg"
     width="1.70667in" height="1.70667in"
     viewBox="0 0 512 512">
  <path id="Selection"
        fill="none" stroke="black" stroke-width="1"
        d="M 403.00,48.00
           C 417.21,36.25 425.67,19.09 446.00,19.00
             464.63,18.92 470.66,28.66 483.00,41.00
             492.82,50.82 500.84,57.09 501.00,72.00
             501.17,89.15 493.36,94.64 482.00,106.00
             479.22,108.78 473.33,116.33 469.00,114.83
             466.41,113.94 459.31,106.31 457.00,104.00
             457.00,104.00 430.00,77.00 430.00,77.00
             423.68,70.68 406.25,54.88 403.00,48.00 Z
           M 466.00,219.00
           C 466.00,219.00 466.00,443.00 466.00,443.00
             465.97,462.57 453.92,475.97 434.00,476.00
             434.00,476.00 136.00,476.00 136.00,476.00
             136.00,476.00 79.00,476.00 79.00,476.00
             59.48,475.97 47.03,463.50 47.00,444.00
             47.00,444.00 47.00,147.00 47.00,147.00
             47.00,147.00 47.00,90.00 47.00,90.00
             47.03,68.95 60.32,57.03 81.00,57.00
             81.00,57.00 304.00,57.00 304.00,57.00
             304.00,57.00 304.00,87.00 304.00,87.00
             304.00,87.00 130.00,87.00 130.00,87.00
             130.00,87.00 85.00,87.00 85.00,87.00
             76.85,87.15 77.01,89.78 77.00,97.00
             77.00,97.00 77.00,445.00 77.00,445.00
             77.00,445.00 435.00,445.00 435.00,445.00
             435.00,445.00 435.00,272.00 435.00,272.00
             435.00,272.00 435.00,226.00 435.00,226.00
             435.14,218.51 437.26,219.01 444.00,219.00
             444.00,219.00 466.00,219.00 466.00,219.00 Z
           M 286.00,300.00
           C 286.00,300.00 266.01,279.96 266.01,279.96
             266.01,279.96 236.00,250.00 236.00,250.00
             236.00,250.00 224.06,238.00 224.06,238.00
             222.24,236.00 220.16,233.92 221.17,231.00
             222.04,228.48 228.81,222.19 231.00,220.00
             231.00,220.00 255.00,196.00 255.00,196.00
             255.00,196.00 339.00,112.00 339.00,112.00
             339.00,112.00 365.00,86.00 365.00,86.00
             367.49,83.51 373.84,76.47 376.96,75.74
             381.26,74.73 388.62,84.21 391.67,87.13
             391.67,87.13 431.42,126.72 431.42,126.72
             434.66,130.00 445.51,138.14 443.83,143.00
             443.02,145.35 437.93,150.07 436.00,152.00
             436.00,152.00 418.00,170.00 418.00,170.00
             418.00,170.00 354.00,234.00 354.00,234.00
             354.00,234.00 309.00,279.00 309.00,279.00
             303.33,284.67 292.63,296.86 286.00,300.00 Z
           M 194.00,257.00
           C 199.87,261.21 206.71,268.71 212.00,274.00
             212.00,274.00 240.00,302.00 240.00,302.00
             245.80,307.80 258.82,319.28 262.00,326.00
             248.93,332.90 251.43,330.98 238.00,333.46
             238.00,333.46 226.00,336.88 226.00,336.88
             226.00,336.88 212.00,341.44 212.00,341.44
             212.00,341.44 202.00,344.09 202.00,344.09
             194.62,346.71 187.87,349.89 180.00,351.00
             178.26,343.04 173.88,344.01 167.00,344.00
             167.00,344.00 184.33,288.00 184.33,288.00
             184.33,288.00 188.17,269.00 188.17,269.00
             188.17,269.00 194.00,257.00 194.00,257.00 Z
           M 200.00,390.00
           C 194.77,383.26 187.88,378.94 188.13,369.00
             188.74,344.42 229.14,342.54 243.91,353.11
             257.42,362.77 250.77,385.89 231.00,389.00
             231.00,389.00 249.00,406.00 249.00,406.00
             249.00,406.00 249.00,387.00 249.00,387.00
             249.00,387.00 272.00,387.00 272.00,387.00
             272.00,393.58 271.67,400.73 269.45,407.00
             268.30,410.26 264.21,416.10 265.15,419.00
             265.97,421.50 270.00,424.54 272.00,426.28
             276.95,430.59 282.15,434.64 286.00,440.00
             286.00,440.00 263.00,440.00 263.00,440.00
             259.73,439.94 257.90,439.89 255.00,438.11
             252.83,436.78 250.12,433.50 247.72,433.65
             247.72,433.65 234.00,439.65 234.00,439.65
             223.23,443.00 210.38,442.69 200.00,438.12
             178.65,428.74 177.76,398.51 200.00,390.00 Z
           M 92.00,349.00
           C 92.00,349.00 115.00,349.00 115.00,349.00
             115.00,357.63 114.10,383.32 116.00,390.00
             119.64,383.10 133.76,366.25 139.42,359.00
             143.87,353.31 145.41,349.13 153.00,349.00
             153.00,349.00 174.00,349.00 174.00,349.00
             174.00,349.00 149.58,379.00 149.58,379.00
             147.49,381.47 141.09,388.03 140.86,391.00
             140.63,394.00 147.82,402.26 149.87,405.00
             149.87,405.00 176.00,440.00 176.00,440.00
             176.00,440.00 154.00,440.00 154.00,440.00
             145.55,439.84 144.11,435.32 139.37,429.00
             139.37,429.00 120.00,404.00 120.00,404.00
             120.00,404.00 115.59,411.00 115.59,411.00
             115.59,411.00 115.00,440.00 115.00,440.00
             115.00,440.00 92.00,440.00 92.00,440.00
             92.00,440.00 92.00,349.00 92.00,349.00 Z
           M 288.00,349.00
           C 288.00,349.00 304.00,349.00 304.00,349.00
             304.00,349.00 311.42,350.02 311.42,350.02
             311.42,350.02 316.21,366.00 316.21,366.00
             316.21,366.00 327.00,411.00 327.00,411.00
             327.00,411.00 343.00,349.00 343.00,349.00
             343.00,349.00 358.00,349.00 358.00,349.00
             360.13,349.00 363.73,348.77 365.49,350.02
             368.13,351.89 370.01,362.55 370.87,366.00
             370.87,366.00 383.00,411.00 383.00,411.00
             383.00,411.00 386.35,396.00 386.35,396.00
             386.35,396.00 397.00,349.00 397.00,349.00
             397.00,349.00 421.00,349.00 421.00,349.00
             421.00,349.00 402.37,418.00 402.37,418.00
             401.39,421.77 397.99,437.21 395.49,438.98
             393.73,440.23 390.13,440.00 388.00,440.00
             388.00,440.00 379.00,440.00 379.00,440.00
             376.92,440.00 373.26,440.23 371.56,438.98
             369.46,437.43 367.15,426.98 366.29,424.00
             366.29,424.00 354.00,381.00 354.00,381.00
             354.00,381.00 342.12,426.00 342.12,426.00
             339.24,436.88 339.87,439.85 332.00,440.00
             332.00,440.00 321.00,440.00 321.00,440.00
             318.91,440.00 315.27,440.23 313.56,438.98
             311.94,437.79 311.25,434.86 310.71,433.00
             310.71,433.00 306.63,418.00 306.63,418.00
             306.63,418.00 288.00,349.00 288.00,349.00 Z" />
</svg>
