<?xml version="1.0" encoding="UTF-8" standalone="no"?>
<!DOCTYPE svg PUBLIC "-//W3C//DTD SVG 20010904//EN"
              "http://www.w3.org/TR/2001/REC-SVG-20010904/DTD/svg10.dtd">

<svg xmlns="http://www.w3.org/2000/svg"
     width="4.49333in" height="6.18667in"
     viewBox="0 0 1348 1856">
  <path id="DefensesResourcesValueText"
        fill="none" stroke="black" stroke-width="1"
        d="M 1166.00,885.00
           C 1166.00,885.00 1263.00,885.00 1263.00,885.00" />
  <path id="DefensesResolveValueText"
        fill="none" stroke="black" stroke-width="1"
        d="M 1166.00,810.00
           C 1166.00,810.00 1263.00,810.00 1263.00,810.00" />
  <path id="DefensesCommunicationsValueText"
        fill="none" stroke="black" stroke-width="1"
        d="M 1166.00,744.00
           C 1166.00,744.00 1263.00,744.00 1263.00,744.00" />
  <path id="DefensesPowerDieValueText"
        fill="none" stroke="black" stroke-width="1"
        d="M 1166.00,675.00
           C 1166.00,675.00 1263.00,675.00 1263.00,675.00" />
  <path id="DefensesSizeValueText"
        fill="none" stroke="black" stroke-width="1"
        d="M 1166.00,606.00
           C 1166.00,606.00 1263.00,606.00 1263.00,606.00" />
  <path id="SkillsOperationsValueText"
        fill="none" stroke="black" stroke-width="1"
        d="M 86.00,810.00
           C 86.00,810.00 171.00,810.00 171.00,810.00" />
  <path id="SkillsLoreValueText"
        fill="none" stroke="black" stroke-width="1"
        d="M 86.00,744.00
           C 86.00,744.00 171.00,744.00 171.00,744.00" />
  <path id="SkillsEspionageValueText"
        fill="none" stroke="black" stroke-width="1"
        d="M 86.00,675.00
           C 86.00,675.00 171.00,675.00 171.00,675.00" />
  <path id="SkillsDiplomacyValueText"
        fill="none" stroke="black" stroke-width="1"
        d="M 86.00,606.00
           C 86.00,606.00 171.00,606.00 171.00,606.00" />
  <path id="DefensesResourcesText"
        fill="none" stroke="black" stroke-width="1"
        d="M 918.00,885.00
           C 918.00,885.00 1121.00,885.00 1121.00,885.00" />
  <path id="DefensesResolveText"
        fill="none" stroke="black" stroke-width="1"
        d="M 918.00,810.00
           C 918.00,810.00 1121.00,810.00 1121.00,810.00" />
  <path id="DefensesCommunicationsText"
        fill="none" stroke="black" stroke-width="1"
        d="M 918.00,744.00
           C 918.00,744.00 1121.00,744.00 1121.00,744.00" />
  <path id="DefensesPowerDieText"
        fill="none" stroke="black" stroke-width="1"
        d="M 918.00,675.00
           C 918.00,675.00 1121.00,675.00 1121.00,675.00" />
  <path id="DefensesSizeText"
        fill="none" stroke="black" stroke-width="1"
        d="M 917.00,605.00
           C 917.00,605.00 1122.00,605.00 1122.00,605.00" />
  <path id="SkillsOperationsText"
        fill="none" stroke="black" stroke-width="1"
        d="M 229.00,810.00
           C 229.00,810.00 382.00,810.00 382.00,810.00" />
  <path id="SkillsLoreText"
        fill="none" stroke="black" stroke-width="1"
        d="M 229.00,744.00
           C 229.00,744.00 382.00,744.00 382.00,744.00" />
  <path id="SkillsEspionageText"
        fill="none" stroke="black" stroke-width="1"
        d="M 229.00,675.00
           C 229.00,675.00 382.00,675.00 382.00,675.00" />
  <path id="SkillsDiplomacyText"
        fill="none" stroke="black" stroke-width="1"
        d="M 230.00,606.00
           C 230.00,606.00 382.00,606.00 382.00,606.00" />
  <path id="PowerOptionText1"
        fill="none" stroke="black" stroke-width="1"
        d="M 794.00,1046.00
           C 794.00,1046.00 1161.00,1046.00 1161.00,1046.00" />
  <path id="PowerOptionText0"
        fill="none" stroke="black" stroke-width="1"
        d="M 200.00,1046.00
           C 200.00,1046.00 540.00,1046.00 540.00,1046.00" />
  <path id="FeatureOptionText4"
        fill="none" stroke="black" stroke-width="1"
        d="M 370.00,1466.00
           C 370.00,1466.00 974.00,1466.00 974.00,1466.00" />
  <path id="FeatureOptionText3"
        fill="none" stroke="black" stroke-width="1"
        d="M 794.50,1396.00
           C 794.50,1396.00 1161.00,1396.00 1161.00,1396.00" />
  <path id="FeatureOptionText2"
        fill="none" stroke="black" stroke-width="1"
        d="M 200.50,1396.00
           C 200.50,1396.00 540.00,1396.00 540.00,1396.00" />
  <path id="FeatureOptionText1"
        fill="none" stroke="black" stroke-width="1"
        d="M 794.50,1334.00
           C 794.50,1334.00 1161.00,1334.00 1161.00,1334.00" />
  <path id="FeatureOptionText0"
        fill="none" stroke="black" stroke-width="1"
        d="M 200.50,1334.00
           C 200.50,1334.00 540.00,1334.00 540.00,1334.00" />
  <path id="DefensesText"
        fill="none" stroke="black" stroke-width="1"
        d="M 953.00,436.00
           C 953.00,436.00 1042.85,425.77 1128.00,444.00
             1187.75,456.79 1254.00,497.00 1254.00,497.00" />
  <path id="TitleText"
        fill="none" stroke="black" stroke-width="1"
        d="M 343.50,196.50
           C 343.50,196.50 516.47,154.01 690.00,156.00
             841.18,157.74 996.00,193.50 996.00,193.50" />
  <path id="SkillsText"
        fill="none" stroke="black" stroke-width="1"
        d="M 126.00,491.00
           C 126.00,491.00 175.31,457.52 234.00,444.00
             290.26,431.04 356.00,438.00 356.00,438.00" />
  <path id="PowersText"
        fill="none" stroke="black" stroke-width="1"
        d="M 103.00,940.00
           C 103.00,940.00 232.00,940.00 232.00,940.00" />
  <path id="FeaturesText"
        fill="none" stroke="black" stroke-width="1"
        d="M 101.00,1208.00
           C 101.00,1208.00 321.00,1208.00 321.00,1208.00" />
  <path id="FeaturesBanner"
        fill="none" stroke="black" stroke-width="1"
        d="M 33.67,1218.67
           C 33.65,1217.23 28.81,1218.14 29.67,1216.00
             31.53,1211.36 39.29,1203.26 40.00,1200.33
             40.25,1199.30 33.05,1199.85 32.67,1198.00
             32.33,1196.34 38.80,1192.27 39.00,1191.33
             39.25,1190.12 49.48,1184.08 48.00,1182.33
             46.78,1180.89 33.75,1183.83 34.33,1182.00
             35.29,1178.99 44.01,1174.82 44.33,1173.33
             44.71,1171.64 46.00,1169.00 42.00,1166.00
             41.88,1164.21 44.18,1163.56 44.33,1162.67
             45.38,1156.37 72.37,1148.13 106.00,1150.00
             113.06,1150.39 83.83,1166.51 92.00,1167.00
             104.70,1167.77 123.52,1169.01 143.00,1167.00
             167.70,1164.45 194.61,1158.28 224.00,1157.00
             230.38,1156.72 218.61,1165.01 225.00,1165.00
             262.57,1164.92 323.21,1160.45 356.00,1162.00
             363.33,1162.35 352.07,1170.75 345.00,1179.00
             339.75,1185.12 337.58,1191.70 343.00,1192.00
             423.95,1196.52 493.29,1181.20 568.00,1182.00
             576.09,1182.09 597.91,1186.65 599.00,1193.00
             600.54,1201.98 579.88,1213.68 587.00,1214.00
             604.11,1214.78 626.56,1214.26 647.00,1211.00
             667.06,1207.80 685.09,1201.88 704.00,1200.00
             747.93,1195.63 783.00,1199.00 783.00,1199.00
             783.00,1199.00 817.92,1211.77 865.00,1214.00
             895.53,1215.45 935.00,1205.37 972.00,1206.00
             997.77,1206.44 1025.57,1217.82 1050.00,1219.00
             1072.58,1220.09 1093.48,1216.05 1112.00,1216.00
             1122.53,1215.97 1141.36,1217.82 1150.00,1218.00
             1176.57,1218.54 1185.00,1214.00 1185.00,1214.00
             1185.00,1214.00 1154.89,1232.15 1071.00,1242.00
             1045.89,1244.95 988.66,1239.19 960.00,1243.00
             927.95,1247.26 895.23,1264.98 861.00,1268.00
             824.00,1271.26 769.38,1253.88 735.00,1257.00
             667.28,1263.14 614.36,1269.58 577.00,1273.00
             567.74,1273.43 521.26,1276.88 517.00,1272.00
             511.80,1266.04 555.06,1252.52 544.00,1253.00
             453.04,1256.94 409.78,1259.89 330.00,1261.00
             325.60,1261.06 308.84,1259.49 309.00,1254.00
             309.23,1245.93 327.25,1232.92 321.00,1233.00
             226.98,1234.26 185.05,1233.78 129.00,1234.00
             123.46,1234.02 64.72,1237.26 64.00,1233.00
             62.99,1227.02 74.87,1216.96 69.00,1217.00
             43.47,1217.18 30.00,1226.00 30.00,1226.00
             30.00,1226.00 33.69,1221.80 33.67,1218.67 Z
           M 585.33,1213.00
           C 585.33,1213.00 579.62,1215.87 571.33,1226.00
             570.04,1227.58 566.48,1232.73 564.00,1238.67
             562.55,1242.14 561.26,1253.79 556.00,1258.67
             548.55,1265.58 536.37,1265.55 532.33,1266.67
             523.01,1269.25 517.00,1271.00 517.00,1271.00M 339.67,1189.33
           C 339.67,1189.33 336.11,1194.09 334.67,1203.00
             332.95,1213.61 333.00,1229.29 328.67,1238.67
             321.51,1254.16 309.33,1255.00 309.33,1255.00M 92.00,1163.67
           C 92.00,1163.67 86.23,1165.40 85.33,1171.33
             84.40,1177.55 86.28,1189.80 83.67,1197.00
             79.34,1208.91 71.00,1217.67 71.00,1217.67" />
  <path id="PowersBanner"
        fill="none" stroke="black" stroke-width="1"
        d="M 40.67,943.33
           C 41.17,941.61 47.40,941.86 48.00,940.00
             48.58,938.20 41.48,935.91 42.00,934.00
             45.17,927.85 44.69,923.86 46.67,919.33
             47.35,917.77 51.33,918.07 52.00,916.67
             48.67,908.00 56.00,901.33 56.00,901.33
             56.00,901.33 81.63,894.87 113.33,896.00
             115.99,896.09 96.49,903.90 99.33,904.00
             108.57,904.34 121.33,908.00 135.33,904.67
             149.14,905.94 161.72,909.22 176.00,909.33
             202.44,909.54 226.04,905.54 258.00,906.67
             262.47,906.82 265.30,914.29 263.33,920.00
             262.04,923.75 254.96,926.56 258.00,926.67
             264.40,926.89 272.49,925.44 277.33,926.00
             284.47,926.83 288.25,929.61 299.33,928.67
             322.06,926.73 356.79,920.09 378.67,920.67
             406.36,921.40 441.12,926.28 473.33,922.00
             497.26,918.82 518.66,906.09 540.67,906.67
             562.46,907.24 582.15,912.59 604.00,913.33
             637.13,914.46 674.72,904.69 707.33,906.00
             727.76,906.82 746.77,919.00 766.67,920.00
             782.13,920.78 798.29,914.57 813.33,915.33
             827.52,916.05 839.39,922.82 849.33,929.33
             857.52,934.70 863.73,940.01 874.67,940.67
             886.42,941.37 907.86,940.52 920.00,938.67
             936.69,936.12 949.98,930.20 964.67,930.67
             980.93,931.19 992.34,937.23 1004.67,942.00
             1024.78,949.78 1043.72,957.66 1063.33,958.67
             1087.71,959.92 1110.16,951.50 1128.67,948.00
             1156.22,942.79 1174.67,941.33 1174.67,941.33
             1174.67,941.33 1160.84,948.78 1134.67,958.67
             1117.02,965.33 1094.89,974.83 1063.33,977.33
             1038.80,979.28 991.17,955.69 962.67,958.00
             935.33,960.21 907.51,971.43 878.00,972.67
             864.25,973.24 845.97,963.03 832.00,960.67
             821.90,958.96 816.36,961.94 807.33,962.67
             798.85,963.35 786.88,961.74 777.33,962.00
             759.73,962.48 754.24,950.81 736.67,951.33
             711.24,952.08 717.71,950.43 692.00,951.33
             688.32,951.46 697.01,956.54 693.33,956.67
             657.16,957.94 631.01,961.43 594.67,962.67
             575.64,963.31 557.47,955.29 538.67,956.00
             533.08,956.21 522.04,954.07 518.00,956.67
             513.51,959.56 516.22,967.27 514.00,968.67
             505.45,974.05 492.51,977.56 480.00,978.00
             445.01,979.24 416.75,969.52 383.33,970.67
             357.24,971.56 331.89,980.63 307.33,981.33
             304.38,981.42 309.59,977.92 306.67,978.00
             291.63,978.42 280.99,980.32 266.67,980.67
             262.36,980.77 268.90,977.23 264.67,977.33
             262.16,977.39 262.96,979.92 260.67,980.00
             249.33,980.37 236.99,978.44 225.33,978.67
             212.23,978.92 241.00,960.43 228.67,960.67
             175.37,961.67 154.31,962.81 118.67,963.33
             112.47,963.42 93.13,964.69 84.00,963.33
             77.29,962.34 80.34,958.61 76.67,958.67
             73.83,958.71 82.60,953.30 80.00,953.33
             55.19,953.70 39.33,958.00 39.33,958.00
             39.33,958.00 38.21,951.69 40.67,943.33 Z
           M 531.33,906.67
           C 531.33,906.67 527.33,918.00 520.00,926.00
             527.33,942.67 518.67,956.67 518.67,956.67M 256.67,927.33
           C 256.28,927.33 243.33,942.00 240.00,966.00
             233.25,976.18 222.67,978.00 222.67,978.00M 100.00,904.67
           C 100.00,904.67 96.19,903.02 93.33,910.67
             94.00,933.33 81.33,954.67 81.33,954.67" />
  <path id="Stat2"
        fill="none" stroke="black" stroke-width="1"
        d="M 1145.00,557.00
           C 1145.00,557.00 1146.00,921.00 1146.00,921.00M 1283.00,843.00
           C 1283.00,843.00 896.00,843.00 897.00,844.00M 1282.00,770.00
           C 1282.00,770.00 902.00,769.00 901.00,770.00M 1284.00,702.00
           C 1284.00,702.00 899.00,702.00 899.00,702.00M 1282.00,631.00
           C 1282.00,631.00 901.00,630.00 901.00,632.00M 897.00,637.00
           C 899.00,645.00 896.00,901.00 896.00,901.00
             896.00,901.00 903.19,906.21 908.00,913.00
             911.47,917.89 913.00,925.00 913.00,925.00
             913.00,925.00 1269.00,923.00 1269.00,923.00
             1269.00,923.00 1269.85,916.78 1273.33,911.67
             1277.32,905.83 1284.00,901.00 1284.00,901.00
             1284.00,901.00 1284.00,577.00 1284.00,577.00
             1284.00,577.00 1277.47,573.50 1273.33,568.33
             1269.48,563.52 1268.00,557.00 1268.00,557.00
             1268.00,557.00 940.00,557.00 940.00,556.00" />
  <path id="Stat1"
        fill="none" stroke="black" stroke-width="1"
        d="M 451.00,646.00
           C 451.00,646.00 451.00,819.00 451.00,819.00
             451.00,819.00 444.89,821.80 441.00,827.50
             437.40,832.78 436.00,841.00 436.00,841.00
             436.00,841.00 81.00,841.00 81.00,841.00
             81.00,841.00 79.73,833.59 76.00,828.00
             71.76,821.64 65.00,817.00 65.00,817.00
             65.00,817.00 65.00,578.00 65.00,578.00
             65.00,578.00 70.07,574.65 74.00,569.00
             78.06,563.16 81.00,555.00 81.00,555.00
             81.00,555.00 401.00,556.00 401.00,556.00M 199.00,556.00
           C 199.00,556.00 199.00,841.00 199.00,840.00M 67.00,632.00
           C 67.00,632.00 441.00,631.00 441.00,631.00M 66.00,701.00
           C 66.00,701.00 452.00,702.00 452.00,702.00M 67.00,769.00
           C 68.00,769.00 451.00,770.00 451.00,770.00" />
  <path id="DefensesBanner"
        fill="none" stroke="black" stroke-width="1"
        d="M 978.67,337.33
           C 978.67,337.33 975.89,342.23 973.33,347.33
             970.27,353.47 970.67,360.67 970.67,360.67M 921.33,353.33
           C 921.33,353.33 918.60,359.14 920.00,366.67
             926.43,401.24 948.00,496.67 948.00,496.67M 1220.67,353.33
           C 1220.67,353.33 1228.11,374.94 1230.67,390.67
             1232.72,403.26 1230.00,410.67 1230.00,410.67M 1302.00,361.33
           C 1302.00,361.33 1282.67,390.67 1282.67,390.67M 1295.33,416.00
           C 1295.33,416.00 1276.27,437.07 1272.67,470.00
             1269.65,497.60 1281.33,535.33 1281.33,535.33M 947.33,497.33
           C 947.33,497.33 965.33,490.00 965.33,490.00
             965.33,490.00 998.26,477.87 1073.33,488.67
             1102.59,492.87 1131.30,495.64 1164.00,509.33
             1175.56,514.17 1184.34,525.40 1196.67,532.67
             1207.14,538.84 1221.37,541.32 1229.33,543.33
             1260.03,551.11 1280.67,535.33 1280.67,535.33M 854.00,314.00
           C 854.00,314.00 890.00,317.33 890.00,317.33
             890.00,317.33 965.54,319.78 977.33,330.00
             980.07,332.37 980.87,341.94 970.67,345.33
             964.45,347.40 936.64,346.41 928.00,349.33
             916.36,353.28 925.09,361.06 932.00,362.00
             948.56,364.26 986.67,356.67 986.67,356.67
             986.67,356.67 1049.10,348.24 1115.33,364.00
             1135.09,368.70 1167.93,378.41 1196.00,391.33
             1212.10,398.74 1223.40,410.37 1238.00,414.67
             1254.97,419.65 1286.22,422.52 1292.67,415.33
             1295.75,411.89 1294.11,400.14 1282.00,392.00
             1275.32,387.51 1248.85,380.29 1235.33,372.00
             1220.41,362.85 1218.80,352.65 1221.33,349.33
             1222.88,347.31 1247.07,345.23 1266.67,348.67
             1286.97,352.22 1302.67,361.33 1302.67,361.33" />
  <path id="SkillsBanner"
        fill="none" stroke="black" stroke-width="1"
        d="M 125.00,353.00
           C 125.00,353.00 122.00,370.00 115.00,393.00
             113.46,402.93 116.00,411.00 116.00,411.00M 367.00,337.00
           C 367.00,337.00 365.35,341.00 367.50,345.50
             376.50,352.50 378.00,360.00 378.00,360.00M 427.00,357.00
           C 427.00,357.00 424.93,366.85 426.00,380.00
             426.91,391.15 431.00,404.75 431.00,416.00
             431.00,429.45 427.00,440.00 427.00,440.00M 66.00,533.00
           C 66.00,533.00 77.40,496.25 73.00,463.00
             69.50,436.54 50.00,412.00 50.00,412.00M 43.00,362.00
           C 43.00,362.00 52.95,371.74 58.00,381.00
             61.75,387.88 61.00,395.00 61.00,395.00M 66.00,534.00
           C 66.00,534.00 74.30,550.78 127.00,543.00
             156.85,538.60 162.85,511.00 199.00,503.00
             225.99,497.03 241.99,490.00 270.00,488.00
             317.04,484.65 371.00,489.00 371.00,489.00
             371.00,489.00 400.00,492.00 400.00,492.00M 502.00,303.00
           C 502.00,303.00 469.00,312.00 469.00,312.00
             469.00,312.00 456.79,316.13 439.00,318.00
             421.95,319.80 399.62,319.26 385.00,323.00
             374.67,325.65 372.05,331.14 369.00,334.00
             358.79,343.56 424.43,353.34 426.00,356.00
             429.09,361.23 384.00,361.00 384.00,361.00
             384.00,361.00 312.17,348.79 245.00,361.00
             180.21,372.78 120.00,409.00 120.00,409.00
             120.00,409.00 105.74,417.34 88.00,419.00
             72.19,420.48 52.80,415.63 51.00,411.00
             49.61,407.43 53.53,399.75 66.00,392.00
             81.33,382.47 106.00,373.00 106.00,373.00
             106.00,373.00 137.06,352.25 120.00,349.00
             95.00,339.00 43.00,361.00 43.00,361.00" />
  <path id="PowerPool"
        fill="none" stroke="black" stroke-width="1"
        d="M 520.50,268.50
           C 520.50,268.50 831.00,270.00 831.00,270.00
             831.00,270.00 958.50,519.00 958.50,519.00
             958.50,519.00 829.50,768.00 829.50,768.00
             829.50,768.00 517.50,769.50 517.50,769.50
             517.50,769.50 382.50,522.00 382.50,522.00
             382.50,522.00 520.50,268.50 520.50,268.50 Z" />
  <path id="TitleBanner"
        fill="none" stroke="black" stroke-width="1"
        d="M 1205.00,246.33
           C 1205.00,246.33 1195.58,227.46 1205.33,190.33
             1208.85,176.97 1212.47,160.42 1219.00,145.67
             1223.32,135.90 1229.14,127.92 1233.33,120.67
             1239.12,110.64 1242.67,103.00 1242.67,103.00M 1048.67,237.33
           C 1048.67,237.33 1049.96,223.63 1060.67,205.33
             1070.61,188.34 1096.05,162.10 1107.67,145.00
             1120.28,126.43 1118.67,117.67 1118.67,117.67M 1219.00,80.00
           C 1219.00,80.00 1213.19,84.60 1209.00,92.00
             1204.08,100.67 1200.67,112.33 1200.67,112.33M 1182.33,68.33
           C 1182.33,68.33 1180.57,70.00 1180.00,75.67
             1179.71,78.60 1180.35,82.43 1180.33,86.00
             1180.31,90.07 1178.97,93.78 1178.67,95.00
             1176.63,103.09 1171.00,109.00 1171.00,109.00M 1011.00,73.33
           C 1011.00,73.33 1016.85,85.20 1019.67,95.33
             1021.73,102.78 1021.00,109.33 1021.00,109.33M 164.67,70.67
           C 164.67,70.67 166.55,85.38 169.33,95.00
             171.68,103.08 175.00,106.33 175.00,106.33M 322.33,63.33
           C 322.33,63.33 325.67,66.85 325.00,75.00
             324.70,78.70 319.38,86.40 318.67,90.67
             316.63,102.97 318.33,112.00 318.33,112.00M 126.67,86.00
           C 126.67,86.00 133.19,90.81 138.00,98.33
             142.33,105.10 145.00,114.67 145.00,114.67M 287.00,224.50
           C 287.00,224.50 284.41,210.78 269.00,187.00
             254.98,165.38 227.50,133.00 227.50,133.00M 145.50,255.50
           C 145.50,255.50 148.33,235.15 149.00,216.50
             149.57,200.63 148.00,186.00 148.00,186.00
             148.00,186.00 142.20,158.54 128.50,135.50
             122.57,125.53 111.49,116.93 105.00,110.00
             97.22,101.69 94.50,96.00 94.50,96.00M 145.00,256.00
           C 145.00,256.00 173.30,260.43 199.50,256.50
             223.18,252.95 245.00,241.00 245.00,241.00
             245.00,241.00 256.63,233.11 268.50,228.50
             277.47,225.02 287.00,224.50 287.00,224.50
             287.00,224.50 290.54,232.61 291.50,240.50
             292.36,247.58 290.66,254.47 290.50,255.50
             289.36,262.64 288.00,267.50 288.00,267.50
             288.00,267.50 286.89,276.67 293.50,279.00
             299.62,281.16 313.50,276.50 313.50,276.50
             313.50,276.50 368.77,244.43 475.50,226.50
             527.01,217.85 609.34,217.82 667.00,217.50
             699.74,217.32 747.59,219.39 778.50,221.00
             816.42,222.97 830.71,224.02 862.50,230.00
             953.26,247.06 1010.00,271.50 1010.00,271.50
             1010.00,271.50 1018.08,273.48 1026.00,274.00
             1033.31,274.48 1040.50,273.50 1040.50,273.50
             1040.50,273.50 1046.70,271.73 1048.50,268.00
             1050.44,263.99 1048.50,237.50 1048.50,237.50
             1048.50,237.50 1058.43,229.60 1068.00,229.50
             1080.92,229.36 1094.50,237.00 1094.50,237.00
             1094.50,237.00 1127.89,249.47 1155.00,256.00
             1175.79,261.01 1192.00,260.50 1192.00,260.50
             1192.00,260.50 1198.08,258.42 1201.50,255.00
             1204.56,251.94 1205.00,247.50 1205.00,247.50M 1218.67,79.33
           C 1218.67,79.33 1205.22,84.66 1195.33,82.33
             1186.77,80.32 1181.50,70.84 1182.33,68.33
             1183.46,64.94 1191.87,59.03 1203.33,59.00
             1212.81,58.98 1225.01,64.19 1231.33,67.33
             1236.69,69.99 1245.14,76.61 1247.33,84.00
             1249.34,90.77 1245.48,98.31 1242.00,101.67
             1235.13,108.30 1218.67,110.00 1218.67,110.00
             1218.67,110.00 1204.91,113.33 1190.33,112.33
             1173.28,111.17 1155.00,105.67 1155.00,105.67
             1155.00,105.67 1130.49,86.87 1109.67,75.00
             1101.57,70.38 1090.61,62.13 1077.00,59.67
             1060.09,56.60 1040.28,60.01 1031.00,61.67
             1023.05,63.08 1011.50,67.72 1011.00,73.00
             1010.56,77.67 1020.40,82.93 1025.00,85.67
             1033.02,90.44 1047.00,92.79 1059.33,97.33
             1075.70,103.36 1099.85,103.12 1111.00,109.00
             1116.72,112.02 1118.49,121.17 1114.33,126.33
             1110.74,130.80 1101.93,131.52 1097.00,132.00
             1091.32,132.55 1081.18,133.12 1073.00,131.67
             1064.39,130.13 1057.76,126.51 1053.00,124.67
             1045.28,121.68 1038.34,118.23 1035.67,117.00
             1021.25,110.35 1004.40,99.42 979.67,92.67
             964.27,88.46 942.55,83.94 922.67,81.67
             920.09,81.37 921.65,84.68 919.00,84.33
             915.15,83.83 911.86,81.65 907.67,80.67
             902.58,79.48 896.56,79.46 891.67,78.67
             885.80,77.69 900.37,83.16 891.33,82.00
             877.27,80.19 856.16,71.90 837.67,69.67
             835.53,69.41 839.56,74.50 837.67,74.67
             833.07,75.06 823.66,70.16 817.33,69.33
             815.36,69.08 816.70,72.69 815.67,73.67
             815.08,74.22 812.25,72.39 811.33,72.33
             793.78,71.32 757.20,66.32 742.00,66.00
             735.25,65.86 747.83,70.86 742.33,70.33
             725.33,68.70 749.18,66.45 731.67,64.67
             711.09,62.57 698.14,60.70 678.33,60.33
             676.28,60.30 677.38,65.03 675.33,65.00
             670.91,64.93 673.73,61.49 669.33,61.33
             642.77,60.41 609.73,61.72 587.50,64.00
             558.69,64.11 529.72,66.21 494.00,72.00
             489.19,72.78 480.24,77.23 475.33,78.00
             452.74,81.54 425.42,82.96 406.33,87.00
             404.84,87.32 408.46,89.02 407.00,89.33
             393.16,92.29 378.20,93.60 368.00,96.33
             366.07,96.85 369.78,99.90 368.00,100.33
             355.00,103.49 340.07,102.09 328.00,105.67
             326.52,106.11 331.42,107.78 328.00,109.33
             322.65,111.76 308.49,114.35 306.33,115.00
             298.28,117.43 291.90,121.26 285.67,123.33
             260.02,131.84 240.77,136.71 235.33,136.00
             234.61,135.91 228.43,135.64 227.00,131.33
             224.86,124.88 227.68,113.18 229.67,110.00
             234.65,102.01 250.33,97.33 250.33,97.33
             250.33,97.33 286.28,88.29 307.33,79.33
             319.45,74.18 321.67,67.94 322.00,66.33
             322.24,65.13 323.56,60.63 317.33,59.33
             307.36,57.26 287.24,58.66 281.67,59.33
             269.23,60.83 262.67,62.33 259.67,65.00
             265.67,65.67 263.33,69.00 263.33,69.00
             263.33,69.00 249.72,68.32 227.67,76.67
             217.43,80.54 198.88,96.75 187.67,101.67
             159.41,114.06 140.00,115.67 140.00,115.67
             140.00,115.67 124.95,117.10 113.33,112.67
             103.22,108.81 96.33,99.00 96.33,99.00
             96.33,99.00 90.38,92.87 95.00,84.67
             97.01,81.10 99.95,76.07 103.67,72.67
             106.69,69.90 116.43,61.25 130.67,59.00
             131.93,58.80 145.47,57.21 155.33,60.00
             158.39,60.86 165.42,66.37 164.00,71.67
             162.47,77.39 152.22,82.94 148.33,84.33
             136.89,88.43 125.67,85.67 125.67,85.67" />
</svg>
